<svg aria-hidden="true" style="width:0;height:0;position:absolute;overflow:hidden" xmlns="http://www.w3.org/2000/svg"><defs><symbol id="icon-bx_search" viewBox="0 0 34 32"><path d="M14.035 24c2.491 0 4.911-.793 6.873-2.251l6.17 5.861 1.985-1.885-6.17-5.861c1.535-1.864 2.37-4.163 2.371-6.531 0-5.881-5.037-10.667-11.228-10.667S2.808 7.451 2.808 13.333C2.808 19.214 7.845 24 14.036 24zm0-18.667c4.644 0 8.421 3.588 8.421 8s-3.777 8-8.421 8c-4.644 0-8.421-3.588-8.421-8s3.777-8 8.421-8z"/></symbol><symbol id="burger-menu" viewBox="0 0 32 32"><path d="M3.492 6.741c-.321.1-.495.235-.655.507-.129.22-.144.297-.144.752 0 .457.015.531.148.759.1.166.234.3.395.397l.005.003.252.148h25.021l.26-.16c.329-.204.507-.529.544-1.001.037-.459-.088-.885-.333-1.129-.376-.376.605-.349-13.008-.345-9.711.003-12.316.017-12.485.071zm0 8c-.321.1-.495.235-.655.507-.129.22-.144.297-.144.752 0 .457.015.531.148.759.1.166.234.3.395.397l.005.003.252.148h25.021l.26-.16c.329-.204.507-.529.544-1.001.037-.459-.088-.885-.333-1.129-.376-.376.605-.349-13.008-.345-9.711.003-12.316.017-12.485.071zm0 8c-.321.1-.495.235-.655.507-.129.22-.144.297-.144.752 0 .457.015.531.148.759.1.166.234.3.395.397l.005.003.252.148h25.021l.26-.16c.329-.204.507-.529.544-1.001.037-.459-.088-.885-.333-1.129-.376-.376.605-.349-13.008-.345-9.711.003-12.316.017-12.485.071z"/></symbol><symbol id="x-close-btn" viewBox="0 0 32 32"><path d="M7.501 6.727a2.257 2.257 0 0 0-.772.776l-.006.01a1.15 1.15 0 0 0 .005.99l-.003-.007c.075.149 1.313 1.427 3.745 3.864L14.105 16l-3.635 3.64c-2.432 2.437-3.671 3.715-3.745 3.864-.235.469-.113.977.34 1.431s.961.575 1.431.34c.149-.075 1.427-1.313 3.864-3.745L16 17.895l3.64 3.635c2.437 2.432 3.715 3.671 3.864 3.745.469.235.977.113 1.431-.34s.575-.961.34-1.431c-.075-.149-1.313-1.427-3.745-3.864L17.895 16l3.635-3.64c2.432-2.437 3.671-3.715 3.745-3.864.235-.469.113-.977-.34-1.431s-.961-.575-1.431-.34c-.149.075-1.427 1.313-3.864 3.745L16 14.105l-3.64-3.635C9.923 8.038 8.645 6.799 8.496 6.725a1.173 1.173 0 0 0-1.002.005l.007-.003z"/></symbol><symbol id="right-chevron" viewBox="0 0 32 32"><path d="M8.927 32a1.852 1.852 0 0 1-1.311-3.164L20.453 16 7.616 3.163a1.853 1.853 0 1 1 2.621-2.62l14.146 14.146a1.852 1.852 0 0 1 0 2.62L10.237 31.456a1.842 1.842 0 0 1-1.31.544z"/></symbol><symbol id="book" viewBox="0 0 32 32"><path d="M15.04.031c-.103.012-.451.048-.773.08-1.186.118-2.621.461-3.92.936-.706.258-2.211 1.008-2.879 1.433a16.564 16.564 0 0 0-4.949 4.924l-.039.064c-.425.668-1.175 2.173-1.433 2.879a17.121 17.121 0 0 0-.939 3.831l-.009.089c-.038.322-.07 1.102-.07 1.733 0 1.258.063 1.923.293 3.093.277 1.411.688 2.614 1.356 3.974.837 1.702 1.637 2.811 3.041 4.214 1.403 1.404 2.512 2.204 4.214 3.041 1.36.668 2.563 1.079 3.974 1.356 1.164.229 1.831.292 3.093.292s1.929-.063 3.093-.292c1.411-.277 2.614-.688 3.974-1.356 1.702-.837 2.811-1.637 4.214-3.041 1.404-1.403 2.204-2.512 3.041-4.214a15.77 15.77 0 0 0 1.571-5.258l.007-.076c.089-.755.092-2.718.004-3.44-.385-3.151-1.573-5.992-3.501-8.371-.565-.697-1.753-1.881-2.43-2.422C23.71 1.692 20.949.526 17.994.132c-.602-.08-2.556-.147-2.954-.101zm-1.253 8.796c.473.1.951.335 1.374.674.3.241.653.617.788.84.047.078.056.078.104-.002.257-.427.879-.977 1.406-1.242.659-.333.825-.348 3.693-.349l2.566-.001.141.13.141.131-.002 5.856c-.001 4.519-.016 5.875-.066 5.941-.157.204-.227.208-3.115.209-3.079.001-3.104.003-3.554.313-.438.301-.659.697-.735 1.313-.056.452-.195.613-.528.613s-.472-.161-.529-.613c-.078-.619-.266-.963-.701-1.283-.467-.343-.467-.342-3.587-.343-2.888-.001-2.958-.005-3.115-.209-.05-.066-.065-1.422-.066-5.941L8 9.008l.141-.131.141-.13 2.566.001c2.055 0 2.64.016 2.939.079zm-4.774 6.051v5.117l2.68.016c2.601.015 2.689.019 2.986.131.168.064.415.19.548.279l.242.164-.014-4.495-.015-4.496-.199-.402c-.226-.458-.647-.912-1.047-1.129-.523-.285-.699-.303-3.032-.303H9.013v5.118zm9.339-5.034c-.682.184-1.258.671-1.592 1.346l-.2.404-.015 4.496-.014 4.495.242-.164c.133-.089.38-.215.548-.279.297-.112.385-.116 2.986-.131l2.68-.016V9.76l-2.174.004c-1.722.002-2.233.019-2.461.08z"/></symbol><symbol id="heart" viewBox="0 0 32 32"><path d="M15.04.031c-.103.012-.451.048-.773.08-1.186.118-2.621.461-3.92.936-.706.258-2.211 1.008-2.879 1.433a16.564 16.564 0 0 0-4.949 4.924l-.039.064c-.425.668-1.175 2.173-1.433 2.879a17.121 17.121 0 0 0-.939 3.831l-.009.089c-.038.322-.07 1.102-.07 1.733 0 1.258.063 1.923.293 3.093.277 1.411.688 2.614 1.356 3.974.837 1.702 1.637 2.811 3.041 4.214 1.403 1.404 2.512 2.204 4.214 3.041 1.36.668 2.563 1.079 3.974 1.356 1.164.229 1.831.292 3.093.292s1.929-.063 3.093-.292c1.411-.277 2.614-.688 3.974-1.356 1.702-.837 2.811-1.637 4.214-3.041 1.404-1.403 2.204-2.512 3.041-4.214a15.77 15.77 0 0 0 1.571-5.258l.007-.076c.089-.755.092-2.718.004-3.44-.385-3.151-1.573-5.992-3.501-8.371-.565-.697-1.753-1.881-2.43-2.422C23.71 1.692 20.949.526 17.994.132c-.602-.08-2.556-.147-2.954-.101zm-1.477 8.898c.803.237 1.364.569 2.024 1.198l.413.394.413-.394c.655-.624 1.209-.953 2.024-1.203.42-.129.554-.144 1.27-.145.914-.002 1.216.06 1.938.398a4.648 4.648 0 0 1 2.348 2.447l.011.031c.233.582.314 1.028.315 1.738v.061a4.436 4.436 0 0 1-1.027 2.845l.006-.007c-.51.63-7.039 7.11-7.203 7.15-.101.025-.198.002-.32-.074-.292-.182-7.097-7.045-7.305-7.368-.558-.863-.791-1.632-.789-2.607.001-.71.082-1.156.315-1.738a4.702 4.702 0 0 1 3.371-2.825l.031-.005c.565-.118 1.577-.069 2.165.104zm-2.024.907a5.28 5.28 0 0 0-.675.213l.035-.012c-1.031.417-1.884 1.429-2.128 2.526-.12.539-.085 1.449.074 1.944.249.77.288.814 3.833 4.373l3.32 3.333 3.125-3.12c1.718-1.716 3.242-3.267 3.387-3.447.691-.86.963-2.046.714-3.113-.258-1.105-1.127-2.096-2.211-2.521-.967-.38-1.911-.33-2.92.154-.438.21-.573.313-1.212.928-.604.581-.746.693-.883.693s-.271-.104-.816-.634c-.763-.741-1.172-1.022-1.764-1.212-.535-.172-1.38-.219-1.879-.105z"/></symbol><symbol id="home" viewBox="0 0 32 32"><path d="M15.04.031c-.103.012-.451.048-.773.08-1.186.118-2.621.461-3.92.936-.706.258-2.211 1.008-2.879 1.433a16.564 16.564 0 0 0-4.949 4.924l-.039.064c-.425.668-1.175 2.173-1.433 2.879a17.121 17.121 0 0 0-.939 3.831l-.009.089c-.038.322-.07 1.102-.07 1.733 0 1.258.063 1.923.293 3.093.277 1.411.688 2.614 1.356 3.974.837 1.702 1.637 2.811 3.041 4.214 1.403 1.404 2.512 2.204 4.214 3.041 1.36.668 2.563 1.079 3.974 1.356 1.164.229 1.831.292 3.093.292s1.929-.063 3.093-.292c1.411-.277 2.614-.688 3.974-1.356 1.702-.837 2.811-1.637 4.214-3.041 1.404-1.403 2.204-2.512 3.041-4.214a15.77 15.77 0 0 0 1.571-5.258l.007-.076c.089-.755.092-2.718.004-3.44-.385-3.151-1.573-5.992-3.501-8.371-.565-.697-1.753-1.881-2.43-2.422C23.71 1.692 20.949.526 17.994.132c-.602-.08-2.556-.147-2.954-.101zm4.605 10.659c1.902 1.479 3.491 2.733 3.531 2.786.108.142.112 8.657.005 9.059-.168.629-.722 1.195-1.36 1.389-.369.112-11.273.112-11.642 0-.638-.194-1.192-.76-1.36-1.389-.107-.402-.103-8.917.005-9.059.04-.053 1.629-1.307 3.531-2.786C15.415 8.31 15.835 8 16 8s.585.31 3.645 2.69zm-6.78.895L9.76 14v4.103c0 4.072.001 4.105.113 4.337.068.141.199.291.329.377l.217.143 2.808.032v-3.515c0-3.626.009-3.794.215-3.905.132-.07 4.984-.07 5.116 0 .206.111.215.279.215 3.905v3.515l2.808-.032.217-.143c.13-.086.261-.236.329-.377.112-.232.113-.265.113-4.337V14l-3.074-2.391c-1.691-1.315-3.102-2.402-3.135-2.415-.034-.013-1.459 1.063-3.166 2.391zm1.375 8.175v3.227h3.52v-6.454h-3.52v3.227z"/></symbol><symbol id="icon-moon" viewBox="0 0 32 32"><path d="M28 17.053a11.994 11.994 0 0 1-7.873 10.182A12.003 12.003 0 0 1 4.338 18.56 12.002 12.002 0 0 1 14.946 3.999 9.335 9.335 0 0 0 28 17.053z"/></symbol><symbol id="icon-sun" viewBox="0 0 32 32"><path d="M16 1.778v2.586m0 23.272v2.586M5.941 5.941l1.836 1.836m16.446 16.446 1.836 1.836M1.778 16h2.586m23.272 0h2.586M5.941 26.059l1.836-1.836M24.223 7.777l1.836-1.836M22.465 16a6.465 6.465 0 1 1-12.93 0 6.465 6.465 0 0 1 12.93 0z"/></symbol><symbol id="others-arrow" viewBox="0 0 32 32"><path d="M8.538 12.23c-4.09 3.789-7.43 6.908-7.426 6.929s.663.644 1.461 1.382c.8.738 1.577 1.459 1.726 1.604l.271.26 5.692-5.257a464.182 464.182 0 0 1 5.306-4.872l.432-.385c.026 0 2.607 2.366 5.739 5.257l5.692 5.257.271-.26c.235-.226 3.177-2.944 3.221-2.976.017-.013-14.914-13.839-14.935-13.833-.009.002-3.36 3.104-7.45 6.893z"/></symbol></defs></svg>